<?xml version="1.0" encoding="UTF-8" standalone="no"?>
<!DOCTYPE svg PUBLIC "-//W3C//DTD SVG 1.1//EN" "http://www.w3.org/Graphics/SVG/1.1/DTD/svg11.dtd">
<svg xmlns="http://www.w3.org/2000/svg" version="1.1" viewBox="0.00 0.00 614.00 407.00">
<g stroke-width="2.00" fill="none" stroke-linecap="butt">
<path stroke="#c33d5c" vector-effect="non-scaling-stroke" d="
  M 356.53 170.67
  Q 339.91 170.95 323.50 171.26
  Q 317.67 171.38 311.82 171.64
  C 294.85 172.39 278.39 177.91 263.87 186.60
  C 260.87 188.39 255.63 190.87 251.96 193.95
  Q 251.56 194.28 251.08 194.09
  Q 250.66 193.93 250.44 193.50"
/>
<path stroke="#803152" vector-effect="non-scaling-stroke" d="
  M 308.21 216.42
  Q 299.81 218.39 297.38 218.66
  C 285.19 220.03 273.74 220.80 263.37 225.17
  C 252.26 229.84 235.97 240.16 235.55 254.00
  C 235.41 258.82 234.91 264.15 236.36 268.58
  Q 238.48 275.08 243.07 279.22
  Q 246.31 282.14 247.04 283.54"
/>
</g>
<path fill="#e03d5d" d="
  M 356.53 170.67
  Q 339.91 170.95 323.50 171.26
  Q 317.67 171.38 311.82 171.64
  C 294.85 172.39 278.39 177.91 263.87 186.60
  C 260.87 188.39 255.63 190.87 251.96 193.95
  Q 251.56 194.28 251.08 194.09
  Q 250.66 193.93 250.44 193.50
  Q 262.05 168.78 273.39 143.94
  C 280.39 128.60 291.07 119.38 307.49 115.21
  Q 312.65 113.90 321.15 113.86
  Q 376.35 113.58 417.50 113.83
  Q 420.51 113.84 423.23 115.63
  Q 423.64 115.90 423.69 116.39
  Q 424.45 123.62 422.24 131.18
  C 416.68 150.12 402.82 163.56 384.13 168.65
  Q 379.37 169.95 371.69 170.15
  Q 364.07 170.36 356.53 170.67
  Z"
/>
<path fill="#a63d5a" d="
  M 356.53 170.67
  C 354.07 177.89 351.42 184.37 347.26 190.59
  C 340.31 200.98 329.38 208.74 317.67 212.82
  Q 312.81 214.52 308.21 216.42
  Q 299.81 218.39 297.38 218.66
  C 285.19 220.03 273.74 220.80 263.37 225.17
  C 252.26 229.84 235.97 240.16 235.55 254.00
  C 235.41 258.82 234.91 264.15 236.36 268.58
  Q 238.48 275.08 243.07 279.22
  Q 246.31 282.14 247.04 283.54
  Q 241.68 281.97 238.74 279.82
  C 233.07 275.67 226.90 268.18 226.25 261.14
  C 225.93 257.73 224.61 255.17 225.65 251.55
  C 226.21 249.56 226.09 246.66 226.64 245.47
  C 227.91 242.72 228.81 239.89 230.35 237.28
  C 230.98 236.20 231.10 235.05 231.70 233.98
  C 233.64 230.53 235.27 226.15 236.66 223.26
  Q 243.74 208.47 250.44 193.50
  Q 250.66 193.93 251.08 194.09
  Q 251.56 194.28 251.96 193.95
  C 255.63 190.87 260.87 188.39 263.87 186.60
  C 278.39 177.91 294.85 172.39 311.82 171.64
  Q 317.67 171.38 323.50 171.26
  Q 339.91 170.95 356.53 170.67
  Z"
/>
<path fill="#592549" d="
  M 308.21 216.42
  Q 307.26 219.93 305.16 222.28
  Q 304.79 222.69 304.74 223.23
  Q 304.51 225.44 303.01 227.10
  A 1.60 1.54 70.5 0 0 302.61 227.98
  Q 302.32 230.52 300.60 232.38
  Q 300.25 232.76 300.19 233.27
  Q 299.96 235.16 298.56 236.40
  A 1.50 1.49 -15.9 0 0 298.07 237.27
  C 297.71 239.35 296.41 241.23 295.80 242.66
  Q 289.59 257.36 284.64 266.98
  Q 277.48 280.88 263.53 284.46
  Q 255.71 286.47 247.04 283.54
  Q 246.31 282.14 243.07 279.22
  Q 238.48 275.08 236.36 268.58
  C 234.91 264.15 235.41 258.82 235.55 254.00
  C 235.97 240.16 252.26 229.84 263.37 225.17
  C 273.74 220.80 285.19 220.03 297.38 218.66
  Q 299.81 218.39 308.21 216.42
  Z"
/>
</svg>
